<svg width="16" height="17" viewBox="0 0 16 17" fill="none" xmlns="http://www.w3.org/2000/svg">
<path d="M12.2799 5.98001C11.8726 5.04401 11.1696 4.2674 10.2786 3.76916C9.3877 3.27093 8.35797 3.07857 7.34724 3.22155C6.33651 3.36454 5.40054 3.83498 4.68276 4.56079C3.96498 5.28661 3.50499 6.22775 3.37326 7.24001C2.73765 7.39223 2.18007 7.77257 1.80642 8.3088C1.43276 8.84504 1.26905 9.49983 1.34637 10.1488C1.42369 10.7978 1.73666 11.3958 2.22584 11.8293C2.71502 12.2627 3.34635 12.5014 3.99993 12.5C4.17674 12.5 4.34631 12.4298 4.47133 12.3047C4.59636 12.1797 4.66659 12.0102 4.66659 11.8333C4.66659 11.6565 4.59636 11.487 4.47133 11.3619C4.34631 11.2369 4.17674 11.1667 3.99993 11.1667C3.6463 11.1667 3.30717 11.0262 3.05712 10.7762C2.80707 10.5261 2.66659 10.187 2.66659 9.83334C2.66659 9.47972 2.80707 9.14058 3.05712 8.89054C3.30717 8.64049 3.6463 8.50001 3.99993 8.50001C4.17674 8.50001 4.34631 8.42977 4.47133 8.30475C4.59636 8.17972 4.66659 8.01016 4.66659 7.83334C4.6683 7.04486 4.94945 6.28251 5.46011 5.68173C5.97076 5.08095 6.67785 4.68065 7.45576 4.55193C8.23366 4.42321 9.03201 4.57442 9.70897 4.97868C10.3859 5.38295 10.8977 6.0141 11.1533 6.76001C11.1914 6.87457 11.2599 6.97663 11.3515 7.0553C11.443 7.13397 11.5543 7.18629 11.6733 7.20668C12.1173 7.29059 12.5198 7.52241 12.8153 7.86437C13.1107 8.20632 13.2816 8.63825 13.3002 9.08977C13.3187 9.54129 13.1838 9.98579 12.9175 10.3508C12.6511 10.7159 12.2689 10.9799 11.8333 11.1C11.6618 11.1442 11.5148 11.2547 11.4248 11.4073C11.3348 11.5598 11.3091 11.7418 11.3533 11.9133C11.3975 12.0849 11.508 12.2318 11.6605 12.3218C11.813 12.4118 11.9951 12.4375 12.1666 12.3933C12.8682 12.208 13.4901 11.7987 13.9379 11.2277C14.3857 10.6566 14.635 9.95508 14.6478 9.22952C14.6606 8.50396 14.4363 7.79404 14.009 7.20756C13.5816 6.62108 12.9745 6.19008 12.2799 5.98001ZM8.47326 7.36001C8.40986 7.29932 8.33509 7.25174 8.25326 7.22001C8.09095 7.15333 7.9089 7.15333 7.74659 7.22001C7.66476 7.25174 7.59 7.29932 7.52659 7.36001L5.52659 9.36001C5.40106 9.48555 5.33053 9.65581 5.33053 9.83334C5.33053 10.0109 5.40106 10.1811 5.52659 10.3067C5.65213 10.4322 5.82239 10.5027 5.99993 10.5027C6.17746 10.5027 6.34772 10.4322 6.47326 10.3067L7.33326 9.44001V13.1667C7.33326 13.3435 7.4035 13.5131 7.52852 13.6381C7.65355 13.7631 7.82312 13.8333 7.99993 13.8333C8.17674 13.8333 8.34631 13.7631 8.47133 13.6381C8.59635 13.5131 8.66659 13.3435 8.66659 13.1667V9.44001L9.52659 10.3067C9.58857 10.3692 9.6623 10.4188 9.74354 10.4526C9.82478 10.4865 9.91192 10.5039 9.99993 10.5039C10.0879 10.5039 10.1751 10.4865 10.2563 10.4526C10.3376 10.4188 10.4113 10.3692 10.4733 10.3067C10.5357 10.2447 10.5853 10.171 10.6192 10.0897C10.653 10.0085 10.6705 9.92135 10.6705 9.83334C10.6705 9.74534 10.653 9.6582 10.6192 9.57696C10.5853 9.49572 10.5357 9.42199 10.4733 9.36001L8.47326 7.36001Z" fill="white"/>
</svg>
